<svg width="62" height="85" viewBox="0 0 62 85" fill="none"
    xmlns="http://www.w3.org/2000/svg">
    <path fill-rule="evenodd" clip-rule="evenodd" d="M2.81248 0C3.5584 0 4.27377 0.319359 4.80122 0.887833C5.32866 1.4563 5.62498 2.22731 5.62498 3.03125L5.62498 81.8438C5.62498 82.6477 5.32866 83.4187 4.80122 83.9872C4.27377 84.5556 3.5584 84.875 2.81248 84.875C2.06656 84.875 1.35118 84.5556 0.823738 83.9872C0.296291 83.4187 -2.28882e-05 82.6477 -2.28882e-05 81.8437L-2.28882e-05 3.03125C-2.28882e-05 2.22731 0.296291 1.4563 0.823738 0.887833C1.35118 0.319359 2.06656 0 2.81248 0ZM16.875 42.4375C16.875 41.6336 17.1713 40.8625 17.6987 40.2941C18.2262 39.7256 18.9416 39.4062 19.6875 39.4062L52.2731 39.4062L40.1962 26.3961C39.9347 26.1143 39.7273 25.7797 39.5858 25.4115C39.4443 25.0432 39.3714 24.6486 39.3714 24.25C39.3714 23.8514 39.4443 23.4568 39.5858 23.0885C39.7273 22.7203 39.9347 22.3857 40.1962 22.1039C40.4577 21.822 40.7682 21.5985 41.1098 21.446C41.4515 21.2934 41.8177 21.2149 42.1875 21.2149C42.5573 21.2149 42.9235 21.2934 43.2651 21.446C43.6068 21.5985 43.9172 21.822 44.1787 22.1039L61.0537 40.2914C61.3156 40.573 61.5234 40.9075 61.6652 41.2757C61.807 41.644 61.88 42.0388 61.88 42.4375C61.88 42.8362 61.807 43.231 61.6652 43.5993C61.5234 43.9675 61.3156 44.302 61.0537 44.5836L44.1787 62.7711C43.6506 63.3403 42.9343 63.6601 42.1875 63.6601C41.4406 63.6601 40.7243 63.3403 40.1962 62.7711C39.6681 62.2019 39.3714 61.43 39.3714 60.625C39.3714 59.82 39.6681 59.0481 40.1962 58.4789L52.2731 45.4688L19.6875 45.4687C18.9416 45.4687 18.2262 45.1494 17.6987 44.5809C17.1713 44.0124 16.875 43.2414 16.875 42.4375Z" fill="#EF9A9A"/>
</svg>
