<svg width="1440" height="441" viewBox="0 0 1440 441" fill="none"
    xmlns="http://www.w3.org/2000/svg">
    <rect x="392" width="621" height="441" fill="#EF9A9A"/>
    <path d="M724.15 322.83L680.205 322.796L680.276 231.39L594.582 231.324L594.512 322.73L550.566 322.696L550.731 109.415L594.677 109.449L594.61 195.874L680.303 195.941L680.37 109.515L724.315 109.549L724.15 322.83ZM810.57 322.897L768.09 322.864L768.212 164.368L810.693 164.401L810.57 322.897ZM765.754 123.35C765.759 117.003 767.863 111.78 772.065 107.681C776.365 103.583 782.177 101.537 789.501 101.543C796.728 101.548 802.488 103.603 806.782 107.708C811.075 111.813 813.22 117.04 813.215 123.387C813.21 129.832 811.009 135.104 806.611 139.202C802.311 143.301 796.596 145.347 789.467 145.341C782.339 145.336 776.578 143.281 772.187 139.176C767.893 135.071 765.749 129.796 765.754 123.35ZM862.525 376.404L840.415 364.815L845.696 355.297C852.248 343.388 855.626 331.526 855.831 319.709L855.856 286.897L891.598 286.924L891.429 316.221C891.323 327.061 888.58 337.996 883.2 349.027C877.821 360.058 870.929 369.184 862.525 376.404Z" fill="black"/>
</svg>
