<svg width="623" height="441" viewBox="0 0 623 441" fill="none"
    xmlns="http://www.w3.org/2000/svg">
    <rect x="0.803497" width="621.116" height="441" fill="#EF9A9A"/>
    <path d="M315.528 323.243L271.583 323.209L271.653 231.803L185.96 231.737L185.889 323.143L141.944 323.109L142.109 109.828L186.054 109.862L185.987 196.288L271.681 196.354L271.748 109.928L315.693 109.962L315.528 323.243ZM401.948 323.31L359.467 323.277L359.59 164.781L402.07 164.814L401.948 323.31ZM357.132 123.764C357.136 117.416 359.24 112.193 363.442 108.095C367.743 103.997 373.555 101.95 380.879 101.956C388.105 101.962 393.866 104.017 398.159 108.122C402.453 112.227 404.597 117.453 404.592 123.801C404.587 130.246 402.386 135.518 397.988 139.616C393.688 143.714 387.974 145.76 380.845 145.755C373.716 145.749 367.956 143.694 363.565 139.589C359.271 135.484 357.127 130.209 357.132 123.764ZM453.903 376.817L431.792 365.228L437.073 355.71C443.625 343.801 447.004 331.939 447.208 320.123L447.233 287.31L482.976 287.338L482.807 316.635C482.7 327.474 479.958 338.41 474.578 349.441C469.198 360.472 462.307 369.597 453.903 376.817Z" fill="black"/>
</svg>
