<svg width="100" height="100" viewBox="0 0 100 100" fill="none"
    xmlns="http://www.w3.org/2000/svg">
    <path d="M50 93.75C38.3968 93.75 27.2688 89.1406 19.0641 80.9359C10.8594 72.7312 6.25 61.6032 6.25 50C6.25 38.3968 10.8594 27.2688 19.0641 19.0641C27.2688 10.8594 38.3968 6.25 50 6.25C61.6032 6.25 72.7312 10.8594 80.9359 19.0641C89.1406 27.2688 93.75 38.3968 93.75 50C93.75 61.6032 89.1406 72.7312 80.9359 80.9359C72.7312 89.1406 61.6032 93.75 50 93.75ZM50 100C63.2608 100 75.9785 94.7322 85.3553 85.3553C94.7322 75.9785 100 63.2608 100 50C100 36.7392 94.7322 24.0215 85.3553 14.6447C75.9785 5.26784 63.2608 0 50 0C36.7392 0 24.0215 5.26784 14.6447 14.6447C5.26784 24.0215 0 36.7392 0 50C0 63.2608 5.26784 75.9785 14.6447 85.3553C24.0215 94.7322 36.7392 100 50 100Z" fill="white"/>
    <path d="M39.1938 31.5938C39.7049 31.3306 40.2788 31.2135 40.8522 31.2554C41.4256 31.2973 41.9763 31.4966 42.4438 31.8313L64.3188 47.4563C64.7239 47.7454 65.054 48.127 65.2819 48.5695C65.5097 49.0119 65.6285 49.5024 65.6285 50C65.6285 50.4977 65.5097 50.9882 65.2819 51.4306C65.054 51.8731 64.7239 52.2547 64.3188 52.5438L42.4438 68.1688C41.9765 68.5032 41.426 68.7024 40.8529 68.7443C40.2798 68.7862 39.7062 68.6692 39.1952 68.4063C38.6843 68.1434 38.2557 67.7447 37.9566 67.254C37.6575 66.7633 37.4995 66.1997 37.5 65.625V34.375C37.4994 33.8006 37.6572 33.237 37.956 32.7464C38.2548 32.2557 38.6831 31.8569 39.1938 31.5938Z" fill="white"/>
</svg>
